<svg xmlns="http://www.w3.org/2000/svg" xmlns:xlink="http://www.w3.org/1999/xlink" width="50" height="50" viewBox="0 0 50 50">
    <defs>
        <path id="a" d="M0 .064h43.936V44H0z"/>
    </defs>
    <g fill="none" fill-rule="evenodd">
        <g transform="translate(3 3.02)">
            <mask id="b" fill="#fff">
                <use xlink:href="#a"/>
            </mask>
            <path fill="#E1EDF5" d="M40.456 44H3.48A3.48 3.48 0 0 1 0 40.52V3.544A3.48 3.48 0 0 1 3.48.064h36.977a3.48 3.48 0 0 1 3.48 3.48V40.52a3.48 3.48 0 0 1-3.48 3.48" mask="url(#b)"/>
        </g>
        <path fill="#01B9E1" d="M24.24 25.783l-9.87-13.588 1.878-1.365 8.356 11.5 9.556-8.603 1.554 1.726z"/>
        <path fill="#01B9E1" d="M17.786 38.448l-2.032-1.124 8.248-14.906 12.006 7.576-1.239 1.964-9.926-6.263z"/>
        <path fill="#3CCEA5" d="M29.664 24.057a5.241 5.241 0 1 1-10.483 0 5.241 5.241 0 0 1 10.483 0"/>
        <path fill="#009BD9" d="M38.96 15.12a4.456 4.456 0 1 1-8.913 0 4.456 4.456 0 0 1 8.912 0M19.641 11.512a4.333 4.333 0 1 1-8.665 0 4.333 4.333 0 0 1 8.665 0M20.902 38.24a4.686 4.686 0 1 1-9.372 0 4.686 4.686 0 0 1 9.372 0M38.96 30.976a3.57 3.57 0 1 1-7.142 0 3.57 3.57 0 0 1 7.141 0"/>
        <path fill="#DFEFF7" d="M33.482 30.656a.796.796 0 0 0 .312-.21c.061-.062.124-.133.191-.209.077-.088.156-.178.246-.267.089-.09.18-.169.267-.246.075-.066.147-.13.208-.19a.793.793 0 0 0 .21-.312.448.448 0 0 0-.121-.46c-.335-.334-.969-.206-1.474.299s-.633 1.138-.298 1.473a.448.448 0 0 0 .459.122M13.824 35.765c-.638.637-.8 1.436-.377 1.86a.565.565 0 0 0 .58.153c.164-.05.296-.169.393-.265.078-.078.157-.168.241-.264.097-.11.198-.224.31-.337.112-.112.227-.213.337-.31.096-.084.186-.163.264-.24a1 1 0 0 0 .265-.394.565.565 0 0 0-.154-.58c-.423-.422-1.222-.26-1.86.377M12.977 9.135c-.62.62-.778 1.399-.366 1.81a.55.55 0 0 0 .564.15c.16-.05.289-.164.383-.258.075-.076.152-.164.235-.257.094-.107.192-.218.301-.328.11-.11.221-.207.329-.302.093-.081.18-.159.256-.234a.975.975 0 0 0 .259-.384.55.55 0 0 0-.15-.563c-.412-.412-1.19-.254-1.81.366M21.468 21.025c-.761.761-.955 1.716-.45 2.222.193.193.445.26.692.184.197-.061.355-.202.47-.318.093-.092.188-.2.289-.314.115-.132.235-.268.37-.403.134-.134.27-.254.402-.37.114-.1.222-.195.315-.288.116-.116.256-.274.317-.47a.675.675 0 0 0-.184-.692c-.505-.505-1.46-.312-2.22.45M32.659 14.217c.077-.078.157-.168.24-.263.098-.11.198-.225.31-.338.113-.112.227-.212.338-.31.095-.084.186-.163.263-.24.097-.097.215-.23.266-.395a.565.565 0 0 0-.154-.579c-.423-.422-1.223-.26-1.86.377s-.799 1.437-.376 1.86a.565.565 0 0 0 .579.153c.164-.05.297-.168.394-.265"/>
    </g>
</svg>
