<svg xmlns="http://www.w3.org/2000/svg" width="116" height="38"><g fill="none" fill-rule="evenodd"><rect width="116" height="38" fill="#FFF" rx="4"/><path fill="#FCDFA8" d="M54.91 15.08h6.31v8.454a3.156 3.156 0 11-6.31 0v-8.455z"/><path fill="#FCDFA8" d="M54.91 21.61v-6.53h8.01a3.21 3.21 0 013.21 3.21v.11a3.21 3.21 0 01-3.21 3.21h-8.01z"/><path fill="#FBB93E" d="M61.221 21.61h-6.312v-8.454a3.156 3.156 0 016.312 0v8.454z"/><path fill="#FBB93E" d="M61.221 15.08v6.53h-8.01A3.21 3.21 0 0150 18.4v-.11a3.21 3.21 0 013.21-3.21h8.01zm11.671 3.589c1.27 0 1.987-.617 1.987-1.788 0-1.028-.534-1.74-1.575-1.74h-1.222v3.528h.81zm-4.327 5.726v-1.344l1.147-.475v-7.434l-1.147-.475v-1.345l3.517-.078h1.453c2.338 0 3.714 1.265 3.714 3.322 0 2.657-1.575 3.954-4.357 3.954h-.81v2.056l1.147.475v1.344h-4.664zm12.907-1.661l1.376.395v1.266H77.94V23.13l1.223-.395v-8.89l-1.223-.315v-1.266l3.531-.127zm1.684-5.536v-1.265l3.516-.08v5.458c0 .87.244 1.265.933 1.265.994 0 1.727-.854 1.727-.854v-4.128l-1.222-.396v-1.265l3.515-.08v6.88l1.224.318v1.233l-3.226.111-.153-1.108s-1.223 1.266-2.675 1.266c-1.53 0-2.416-1.06-2.416-2.831v-4.128l-1.223-.396zm13.367 5.616c.84 0 1.252-.27 1.252-.776 0-1.297-4.081-.822-4.081-3.638 0-1.977 1.53-2.705 3.15-2.705 1.375 0 2.843.475 2.843.475l-.061 2.372h-1.3l-.23-.948s-.442-.158-1.054-.158c-.657 0-1.055.284-1.055.807 0 1.28 4.081.727 4.081 3.463 0 1.82-1.42 2.847-3.515 2.847-1.452 0-2.813-.347-2.813-.347v-2.579h1.376l.122 1.029s.535.158 1.285.158"/><text fill="#8573E1" font-family="OpenSans-Bold, Open Sans" font-size="14" font-weight="bold"><tspan x="15.514" y="24">Get</tspan></text></g></svg>