<svg xmlns="http://www.w3.org/2000/svg" xmlns:xlink="http://www.w3.org/1999/xlink" width="25" height="30"><defs><path id="a" d="M0 .041h21.312v29.778H0z"/><path id="c" d="M.115.041h21.311v29.778H.115z"/></defs><g fill="none" fill-rule="evenodd"><path fill="#33AA85" d="M11.25 30h2.5v-1.25zm0-30l1.587 1.25L13.75 0z"/><mask id="b" fill="#fff"><use xlink:href="#a"/></mask><path fill="#1A98C3" d="M10.656 29.82c-.266 0-.53-.033-.788-.098-1.788-.449-3.39-1.15-4.758-2.086a12.073 12.073 0 01-3.056-2.99 11.48 11.48 0 01-1.59-3.193C.16 20.492 0 19.526 0 18.66V5.862c0-1.056.505-2.056 1.352-2.676C2.906 2.05 6.172.13 10.586.044c.103-.002.208-.003.312-.003 4.219 0 7.416 1.714 8.946 2.736a3.288 3.288 0 011.38 1.999l.078.506c.012.162.007 7.92.007 7.92.002.037.002.072.002.106v5.751c0 .065-.002.13-.005.194-.05.868-.257 1.827-.598 2.772a11.767 11.767 0 01-1.689 3.119 11.617 11.617 0 01-3.086 2.829c-1.365.86-2.939 1.462-4.677 1.79-.199.037-.4.056-.6.056" mask="url(#b)"/><g transform="translate(2.504)"><mask id="d" fill="#fff"><use xlink:href="#c"/></mask><path fill="#34B4E0" d="M10.77 29.82c-.265 0-.53-.033-.787-.098-1.789-.449-3.39-1.15-4.759-2.086a12.085 12.085 0 01-3.055-2.99 11.483 11.483 0 01-1.591-3.193c-.303-.961-.463-1.927-.463-2.793V5.862c0-1.056.505-2.056 1.351-2.676C3.021 2.05 6.287.13 10.701.044c.103-.002.208-.003.312-.003 4.219 0 7.416 1.714 8.946 2.736a3.296 3.296 0 011.38 1.999l.078.506c.012.162.007 7.92.007 7.92l.002.106v5.751c0 .065-.002.13-.006.194-.05.868-.257 1.827-.597 2.772a11.742 11.742 0 01-1.69 3.119 11.598 11.598 0 01-3.085 2.829c-1.365.86-2.94 1.462-4.678 1.79-.198.037-.4.056-.6.056" mask="url(#d)"/></g><path fill="#D2E4FA" d="M19.372 12.356c-1.814-1.192-3.992-1.829-6.129-1.785-1.582.03-2.943.415-4.023.879V8.774c.888-.544 2.297-1.177 4.073-1.211 2.18-.045 3.836.84 4.629 1.37.61.407 1.43.237 1.833-.379a1.346 1.346 0 00-.375-1.852c-1.05-.7-3.243-1.87-6.137-1.812-2.924.056-5.09 1.33-6.122 2.084a1.344 1.344 0 00-.547 1.083v5.659c0 .5.277.96.717 1.189.44.229.97.19 1.374-.1.783-.565 2.426-1.518 4.629-1.56a8.063 8.063 0 012.793.45l.56.219c.206.088.396.179.57.269l-.071 4.23c-.09.276-.22.6-.41.935-.694 1.215-1.844 2.012-3.424 2.371-1.56-.443-2.695-1.226-3.392-2.322a5.368 5.368 0 01-.268-.502 1.36 1.36 0 00-.45-.716 1.328 1.328 0 00-.851-.308 1.351 1.351 0 00-1.22 1.921l.001.01c.781 1.782 2.495 3.752 5.823 4.587a1.328 1.328 0 00.562.017c4.852-.917 6.344-4.76 6.455-6.665l.002-.078v-4.186c0-.453-.227-.874-.602-1.12"/><path fill="#FFF" d="M12.898 24.373c4.728-.969 6.191-4.748 6.3-6.632l.003-.078v-4.186c0-.444-.214-.865-.582-1.108a10.914 10.914 0 00-5.539-1.79 10.74 10.74 0 00-3.86.87l-.08.028a.522.522 0 01-.686-.5l-.006-1.898c0-.192.1-.369.267-.462a8.09 8.09 0 013.805-1.054c.183-.004.36 0 .535.01.079-.004.158-.009.239-.01 2.179-.045 3.834.84 4.628 1.37.108.072.224.126.343.163a1.31 1.31 0 00.734-.57c.386-.622.174-1.45-.435-1.853-.988-.652-2.93-1.676-5.484-1.776-2.84.1-4.947 1.336-5.958 2.077a1.336 1.336 0 00-.548 1.083v5.659c0 .5.277.96.717 1.188.071.037.145.065.22.088.133-.042.263-.102.381-.187.784-.565 2.427-1.518 4.629-1.56a7.93 7.93 0 01.537.01c.078-.003.156-.009.236-.01a8.063 8.063 0 012.793.45l.56.219c.207.088.396.179.57.269l-.072 4.23c-.089.276-.219.6-.41.935-.693 1.215-1.843 2.012-3.423 2.37a6.624 6.624 0 01-.354-.11c-.137.04.498.078.354.11-1.56-.442-3.468-1.225-4.165-2.321a5.368 5.368 0 01-.268-.502 1.36 1.36 0 00-.45-.716 1.322 1.322 0 00-.466-.25 1.356 1.356 0 00-.832 1.862l.001.01c.777 1.773 2.476 3.729 5.766 4.572"/></g></svg>