<svg xmlns="http://www.w3.org/2000/svg" xmlns:xlink="http://www.w3.org/1999/xlink" width="50" height="50" viewBox="0 0 50 50"><defs><path id="a" d="M0 .13h49.87v49.672H0z"/><path id="c" d="M0 .13h49.87v49.672H0z"/></defs><g fill="none" fill-rule="evenodd"><g transform="translate(0 .069)"><mask id="b" fill="#fff"><use xlink:href="#a"/></mask><path fill="#F4F7FB" d="M49.87 24.966c0 13.716-11.164 24.836-24.935 24.836C11.164 49.802 0 38.682 0 24.966 0 11.249 11.164.13 24.935.13 38.706.13 49.87 11.249 49.87 24.966" mask="url(#b)"/></g><g transform="translate(0 .069)"><mask id="d" fill="#fff"><use xlink:href="#c"/></mask><path fill="#F4F7FB" d="M49.87 24.966c0 13.716-11.164 24.836-24.935 24.836C11.164 49.802 0 38.682 0 24.966 0 11.249 11.164.13 24.935.13 38.706.13 49.87 11.249 49.87 24.966" mask="url(#d)"/></g><path fill="#3EC19D" d="M24.935 6.55c-.285.122-14.876 5.774-14.876 5.781v10.623c0 7.365 2.092 16.986 14.876 20.565C37.688 39.94 39.78 30.151 39.78 22.954c.031-3.633.031-10.623.031-10.623 0-.007-14.507-5.636-14.876-5.782"/><path fill="#3CCEA5" d="M24.935 9.603c-.238.102-12.419 4.82-12.419 4.827v8.868c0 6.148 1.747 14.18 12.42 17.168 10.646-2.988 12.392-11.16 12.392-17.168.026-3.033.026-8.868.026-8.868 0-.007-12.11-4.706-12.419-4.827"/><path fill="#FFF" d="M26.958 20.916h-4.046v-1.12c0-.927.62-1.767 1.532-1.974 1.33-.306 2.514.675 2.514 1.918v1.176zm-1.543 4.8l.302 1.718a.226.226 0 0 1-.223.263l-1.04.002a.224.224 0 0 1-.224-.263l.302-1.72c.012-.06-.019-.118-.071-.153a.926.926 0 0 1-.405-1.019.916.916 0 0 1 .65-.662.947.947 0 0 1 1.214.899.931.931 0 0 1-.434.782c-.052.035-.083.092-.071.153zm3.543-4.8h-.844v-1.104c0-1.408-1.129-2.847-2.528-3.12-2.038-.401-3.83 1.12-3.83 3.048v1.176h-.848c-.701 0-1.272.563-1.272 1.258v7.205c0 .695.57 1.258 1.272 1.258h8.05a1.27 1.27 0 0 0 1.276-1.262v-7.198a1.27 1.27 0 0 0-1.276-1.261z"/></g></svg>