<svg xmlns="http://www.w3.org/2000/svg" xmlns:xlink="http://www.w3.org/1999/xlink" width="50" height="50" viewBox="0 0 50 50"><defs><path id="a" d="M.137 4.345c0 2.361 1.93 4.276 4.311 4.276 2.38 0 4.311-1.915 4.311-4.276C8.76 1.983 6.83.068 4.448.068 2.067.068.137 1.983.137 4.345z"/></defs><g fill="none" fill-rule="evenodd"><path fill="#F4F7FB" d="M49.935 25.034c0 13.659-11.162 24.731-24.93 24.731-13.77 0-24.932-11.072-24.932-24.73C.073 11.374 11.235.302 25.004.302c13.77 0 24.931 11.073 24.931 24.731"/><path fill="#3CCEA5" d="M13.863 40.483l4.214-.411a.626.626 0 0 1 .505.18l3.192 3.205c.338.34.92.188 1.046-.274l2.871-10.568a.618.618 0 0 0-.387-.741l-8.49-3.099a.624.624 0 0 0-.82.423L13.2 39.71a.62.62 0 0 0 .664.774"/><path fill="#3EC19D" d="M16.17 28.54l-1.332 5.005.959.014c.841 0 1.682.632 1.888 1.446l.287 1.201c.185.794.985 1.181 1.744.814l1.15-.529c.78-.346 1.847-.122 2.36.53l.82.956c.047.057.096.107.147.153l1.647-6.061-9.67-3.528z"/><path fill="#3CCEA5" d="M36.364 40.483l-4.215-.411a.626.626 0 0 0-.504.18l-3.193 3.205a.626.626 0 0 1-1.046-.274l-2.87-10.568a.618.618 0 0 1 .386-.741l8.491-3.099a.624.624 0 0 1 .819.423l2.796 10.511a.62.62 0 0 1-.664.774"/><path fill="#3EC19D" d="M34.057 28.54l1.33 5.005-.957.014c-.841 0-1.683.632-1.888 1.446l-.287 1.201c-.185.794-.986 1.181-1.745.814l-1.15-.529c-.779-.346-1.846-.122-2.36.53l-.82.956a1.516 1.516 0 0 1-.147.153l-1.646-6.061 9.67-3.528z"/><g transform="translate(19.23 16.98)"><mask id="b" fill="#fff"><use xlink:href="#a"/></mask><path fill="#F4F6FA" d="M-.726 9.477H9.621V-.787H-.726z" mask="url(#b)"/></g><path fill="#3CCEA5" d="M38.289 21.865c-.513-.652-.513-1.71 0-2.362l.78-.977c.533-.631.349-1.466-.41-1.833l-1.15-.55c-.76-.345-1.252-1.302-1.047-2.117l.267-1.18c.185-.815-.37-1.467-1.21-1.487h-1.294c-.841 0-1.682-.672-1.888-1.466l-.287-1.221c-.205-.794-.985-1.16-1.765-.815l-1.149.53c-.76.366-1.826.122-2.34-.51l-.82-.976c-.534-.632-1.396-.632-1.93 0l-.82.977c-.513.63-1.58.875-2.36.509l-1.15-.53c-.76-.346-1.56.02-1.744.815l-.287 1.221c-.206.794-1.047 1.466-1.888 1.466h-1.314c-.82.02-1.375.672-1.19 1.486l.267 1.181c.205.815-.288 1.772-1.047 2.118l-1.15.55c-.759.366-.964 1.2-.43 1.832l.8.977c.513.651.513 1.71 0 2.362l-.8.957c-.534.651-.329 1.465.43 1.832l1.15.55c.76.366 1.252 1.323 1.047 2.117l-.267 1.222c-.185.794.37 1.466 1.19 1.466l1.314.02c.841 0 1.682.631 1.888 1.445l.287 1.202c.185.794.985 1.18 1.744.814l1.15-.53c.78-.345 1.847-.121 2.36.53l.82.957c.534.651 1.396.651 1.93 0l.82-.957c.514-.651 1.58-.875 2.34-.53l1.15.53c.779.367 1.559-.02 1.764-.814l.287-1.202c.206-.814 1.047-1.445 1.888-1.445l1.293-.02c.842 0 1.396-.672 1.211-1.466l-.267-1.222c-.205-.794.288-1.75 1.047-2.117l1.15-.55c.759-.367.943-1.18.41-1.832l-.78-.957z"/><path fill="#3EC19D" d="M34.907 21.563c-.382-.485-.382-1.274 0-1.76l.582-.729c.397-.47.26-1.092-.306-1.365l-.857-.41c-.566-.258-.933-.972-.78-1.579l.198-.88c.138-.607-.275-1.093-.902-1.108h-.964c-.627 0-1.254-.5-1.407-1.092l-.215-.911c-.152-.592-.734-.865-1.315-.607l-.857.394c-.566.274-1.361.091-1.744-.38l-.612-.728c-.398-.47-1.04-.47-1.438 0l-.612.729c-.382.47-1.178.653-1.759.38l-.857-.395c-.566-.258-1.162.015-1.3.607l-.214.91c-.153.592-.78 1.093-1.408 1.093h-.979c-.612.015-1.025.501-.887 1.108l.199.88c.153.607-.214 1.32-.78 1.579l-.857.41c-.566.273-.72.895-.321 1.365l.596.729c.383.486.383 1.275 0 1.76l-.596.714c-.398.486-.245 1.092.321 1.366l.857.41c.566.273.933.986.78 1.578l-.199.91c-.138.592.275 1.093.887 1.093l.98.016c.627 0 1.254.47 1.407 1.077l.214.895c.138.592.734.88 1.3.607l.857-.394c.581-.258 1.377-.091 1.76.394l.611.714c.398.485 1.04.485 1.438 0l.612-.714c.383-.485 1.178-.652 1.744-.394l.857.394c.581.274 1.163-.015 1.315-.607l.215-.895c.153-.607.78-1.077 1.407-1.077l.964-.016c.627 0 1.04-.5.902-1.092l-.198-.911c-.153-.592.214-1.305.78-1.579l.857-.41c.566-.273.703-.88.306-1.365l-.582-.714z"/><path stroke="#FFF" stroke-linecap="round" stroke-linejoin="round" stroke-width="1.886" d="M20.466 21.14l2.779 2.665 6.297-6.247"/></g></svg>