<svg xmlns="http://www.w3.org/2000/svg" xmlns:xlink="http://www.w3.org/1999/xlink" width="50" height="50" viewBox="0 0 50 50"><defs><path id="a" d="M0 .13h49.87v49.672H0z"/></defs><g fill="none" fill-rule="evenodd"><g transform="translate(0 .069)"><mask id="b" fill="#fff"><use xlink:href="#a"/></mask><path fill="#F4F7FB" d="M49.87 24.966c0 13.716-11.164 24.836-24.935 24.836C11.164 49.802 0 38.682 0 24.966 0 11.249 11.164.13 24.935.13 38.706.13 49.87 11.249 49.87 24.966" mask="url(#b)"/></g><path fill="#3CCEA5" d="M9.001 17.218v18.568a2.272 2.272 0 0 0 2.274 2.265h24.553a2.272 2.272 0 0 0 2.274-2.265V17.218h-29.1z"/><path fill="#3BB896" d="M34.464 15.407a1.362 1.362 0 0 1-1.364-1.36c0-.75.61-1.358 1.364-1.358.753 0 1.364.608 1.364 1.359 0 .75-.61 1.359-1.364 1.359m-21.825 0a1.362 1.362 0 0 1-1.364-1.36c0-.75.61-1.358 1.364-1.358.753 0 1.364.608 1.364 1.359 0 .75-.61 1.359-1.364 1.359m23.19-4.53H11.274A2.271 2.271 0 0 0 9 13.143v4.076h29.1v-4.076a2.272 2.272 0 0 0-2.273-2.264"/><path fill="#606060" d="M12.639 14.727a.68.68 0 0 1-.682-.68v-3.17a.68.68 0 0 1 .682-.679.68.68 0 0 1 .682.68v3.17a.68.68 0 0 1-.682.679m21.825 0a.68.68 0 0 1-.682-.68v-3.17a.68.68 0 0 1 .682-.679.68.68 0 0 1 .682.68v3.17a.68.68 0 0 1-.682.679"/><path fill="#F4F7FB" d="M17.872 25.496h.47c.263 0 .518-.015.766-.045s.47-.096.668-.197c.197-.1.357-.246.478-.438.121-.191.182-.448.182-.77 0-.414-.142-.75-.425-1.013-.283-.262-.652-.393-1.108-.393-.364 0-.69.104-.978.31a1.75 1.75 0 0 0-.63.869l-1.927-.514c.122-.393.294-.735.516-1.028.223-.292.486-.53.79-.717a3.53 3.53 0 0 1 1-.416c.365-.09.744-.136 1.138-.136a4.7 4.7 0 0 1 1.32.181c.415.121.78.3 1.093.537.313.237.564.534.751.891.187.358.28.774.28 1.247 0 .574-.161 1.086-.485 1.534-.324.449-.774.743-1.35.884v.03c.687.101 1.208.393 1.563.877.353.483.53 1.058.53 1.723 0 .513-.098.967-.295 1.36a2.934 2.934 0 0 1-.797.99c-.334.267-.72.468-1.16.604-.44.136-.898.204-1.374.204-.445 0-.864-.048-1.259-.144a3.542 3.542 0 0 1-1.07-.445 3.022 3.022 0 0 1-.826-.779 3.442 3.442 0 0 1-.532-1.14l1.943-.515c.11.444.308.786.591 1.028s.668.363 1.153.363c.243 0 .473-.04.69-.12a1.86 1.86 0 0 0 .577-.34 1.578 1.578 0 0 0 .539-1.218c0-.342-.074-.622-.22-.838a1.481 1.481 0 0 0-.562-.499 2.436 2.436 0 0 0-.766-.234 5.952 5.952 0 0 0-.834-.06h-.44v-1.633zm8.041 1.043c0 .332.023.718.068 1.156.046.438.14.854.281 1.247.142.393.349.725.622.997s.637.408 1.092.408c.456 0 .82-.136 1.093-.408a2.66 2.66 0 0 0 .622-.997 5.26 5.26 0 0 0 .28-1.247c.046-.438.069-.824.069-1.156 0-.333-.023-.718-.068-1.156a5.261 5.261 0 0 0-.281-1.247 2.659 2.659 0 0 0-.622-.997c-.273-.272-.637-.408-1.093-.408-.455 0-.819.136-1.092.408a2.66 2.66 0 0 0-.622.997 5.252 5.252 0 0 0-.28 1.247c-.046.438-.069.823-.069 1.156m-1.82 0c0-.846.068-1.57.204-2.169.137-.599.316-1.103.539-1.51a3.6 3.6 0 0 1 .75-.983 3.253 3.253 0 0 1 1.685-.808c.268-.04.503-.061.705-.061.203 0 .438.02.706.06a3.25 3.25 0 0 1 1.684.808c.278.248.529.575.751.983.223.408.402.912.539 1.511.136.6.205 1.323.205 2.169 0 .846-.069 1.57-.205 2.169-.137.6-.316 1.103-.539 1.51a3.601 3.601 0 0 1-.75.983 3.236 3.236 0 0 1-1.685.809c-.268.04-.503.06-.706.06-.202 0-.437-.02-.705-.06a3.24 3.24 0 0 1-1.684-.809 3.593 3.593 0 0 1-.751-.982c-.223-.408-.402-.912-.539-1.511-.136-.6-.205-1.323-.205-2.17"/><path fill="#3CCEA5" d="M36.342 43.203a8.153 8.153 0 0 1-6.13-2.738 8.112 8.112 0 0 1-2.063-5.913c.25-4.324 3.844-7.711 8.183-7.711.158 0 .318.004.477.013 4.515.26 7.976 4.134 7.716 8.637-.25 4.325-3.845 7.712-8.183 7.712"/><path fill="#F4F7FB" d="M36.332 26.047v1.587-1.587c-4.76 0-8.705 3.716-8.979 8.46a8.9 8.9 0 0 0 2.264 6.485 8.948 8.948 0 0 0 6.725 3.005c4.76 0 8.704-3.716 8.978-8.46a8.9 8.9 0 0 0-2.264-6.485 8.947 8.947 0 0 0-6.724-3.005m0 1.587c.143 0 .286.004.431.013 4.083.234 7.202 3.726 6.966 7.799-.227 3.929-3.492 6.963-7.387 6.963a7.33 7.33 0 0 1-.432-.012c-4.082-.234-7.201-3.726-6.966-7.799.228-3.929 3.492-6.964 7.387-6.964"/><path stroke="#FFF" stroke-linecap="round" stroke-linejoin="round" stroke-width=".84" d="M35.144 35.735l-2.081-2.076 2.081-2.077"/><path stroke="#FFF" stroke-linecap="round" stroke-linejoin="round" stroke-width=".84" d="M33.106 33.65h5.635c.48 0 .87.388.87.867v3.077c0 .48-.39.868-.87.868h-1.529"/></g></svg>