<svg xmlns="http://www.w3.org/2000/svg" xmlns:xlink="http://www.w3.org/1999/xlink" width="30" height="32" viewBox="-2.5 -2.5 30 30">
    <defs>
        <path id="c4b6i7y14b" d="M25 12.5C25 19.404 19.404 25 12.5 25S0 19.404 0 12.5 5.596 0 12.5 0 25 5.596 25 12.5"/>
        <path id="3vfnaiiz5c" d="M8.339 6.25c1.442.036 2.885.027 4.327.053 1.23.022 2.303.884 2.486 2.105.18 1.204-.045 2.326-1.528 2.978-.031.014-.055.046-.145.125l1.55 2.108c.34-.441.67-.805.924-1.221.176-.29.37-.377.674-.366.573.021 1.147.01 1.72.013.035 0 .069.02.189.059-.327.461-.634.901-.947 1.336-.367.509-.72 1.031-1.118 1.512-.208.253-.176.402.008.64.708.917 1.395 1.85 2.086 2.781.064.087.1.196.185.369-.773 0-1.47.026-2.163-.018-.179-.012-.38-.214-.511-.38-.34-.432-.645-.893-1.023-1.425-.381.5-.773.949-1.09 1.451-.194.31-.41.389-.73.38-.625-.02-1.251-.006-1.99-.006l2.576-3.486c-.686-.95-1.427-1.86-2.04-2.858-.48-.78-1.113-.549-1.81-.553v3.47H7.82v-.712c0-2.595.01-5.19-.008-7.784-.003-.432.105-.58.526-.57zM9.982 8v2.048c.776 0 1.492.011 2.207-.004.489-.01.916-.44.96-.925.047-.497-.282-1.063-.766-1.102-.795-.064-1.598-.017-2.4-.017z"/>
        <filter id="687k8zpu8a" width="156%" height="156%" x="-28%" y="-20%" filterUnits="objectBoundingBox">
            <feOffset dy="2" in="SourceAlpha" result="shadowOffsetOuter1"/>
            <feGaussianBlur in="shadowOffsetOuter1" result="shadowBlurOuter1" stdDeviation="2"/>
            <feColorMatrix in="shadowBlurOuter1" values="0 0 0 0 0 0 0 0 0 0 0 0 0 0 0 0 0 0 0.131064248 0"/>
        </filter>
    </defs>
    <g fill="none" fill-rule="evenodd">
        <g>
            <g>
                <g>
                    <use fill="#000" filter="url(#687k8zpu8a)" xlink:href="#c4b6i7y14b"/>
                    <use fill="#FFF" xlink:href="#c4b6i7y14b"/>
                </g>
                <g fill-rule="nonzero">
                    <use fill="#000" xlink:href="#3vfnaiiz5c"/>
                    <use fill="#ACB5BC" xlink:href="#3vfnaiiz5c"/>
                </g>
            </g>
        </g>
    </g>
</svg>
